<svg viewBox="0 0 128 128" width="72" height="72">
<path d="M30.217 109.422v8.547h-4.724v-22.277h6.491c3.026 0 5.266.551 6.719 1.653 1.453 1.103 2.179 2.776 2.179 5.02 0 1.311-.361 2.477-1.083 3.497-.721 1.021-1.742 1.822-3.063 2.401l6.552 9.705h-5.242l-5.317-8.547h-2.512zm0-3.84h1.524c1.492 0 2.595-.25 3.306-.747.71-.498 1.066-1.28 1.066-2.346 0-1.057-.363-1.808-1.089-2.255-.726-.447-1.851-.671-3.375-.671h-1.432v6.019zM57.795 117.969l-.625-2.179h-.244c-.498.793-1.205 1.404-2.118 1.836-.915.432-1.957.647-3.124.647-2.002 0-3.509-.535-4.526-1.607-1.016-1.072-1.524-2.613-1.524-4.624v-11.108h4.648v9.95c0 1.229.218 2.151.656 2.766.436.615 1.131.921 2.086.921 1.301 0 2.24-.435 2.819-1.302.579-.869.869-2.308.869-4.319v-8.015h4.647v17.035h-3.564zM75.713 100.613c2.011 0 3.586.786 4.725 2.355 1.137 1.569 1.706 3.72 1.706 6.453 0 2.813-.587 4.992-1.759 6.535-1.173 1.545-2.771 2.316-4.793 2.316-2 0-3.57-.727-4.708-2.18h-.32l-.776 1.875h-3.551v-23.707h4.647v5.516c0 .701-.062 1.823-.184 3.368h.184c1.086-1.686 2.697-2.531 4.829-2.531zm-1.493 3.719c-1.147 0-1.985.353-2.513 1.059-.528.707-.803 1.872-.823 3.498v.502c0 1.829.271 3.139.814 3.932.544.792 1.405 1.188 2.583 1.188.955 0 1.713-.44 2.278-1.318.564-.878.846-2.156.846-3.832 0-1.676-.286-2.934-.854-3.772-.568-.838-1.345-1.257-2.331-1.257zM83.241 100.934h5.088l3.215 9.584c.275.833.463 1.818.564 2.956h.092c.111-1.046.329-2.032.654-2.956l3.154-9.584h4.983l-7.207 19.214c-.661 1.777-1.602 3.108-2.826 3.992-1.225.884-2.654 1.325-4.29 1.325-.803 0-1.59-.086-2.361-.259v-3.687c.558.131 1.167.197 1.828.197.822 0 1.541-.251 2.156-.754.615-.502 1.095-1.261 1.44-2.277l.274-.839-6.764-16.912z"></path><path fill="url(#a)" d="M87.524 58.767l-48.886 29.028 63.3-4.294 4.875-63.828z"></path><path fill="url(#b)" d="M102.041 83.457l-5.441-37.552-14.818 19.57z"></path><path fill="url(#c)" d="M102.114 83.457l-39.858-3.129-23.405 7.385z"></path><path fill="url(#d)" d="M38.906 87.722l9.957-32.62-21.91 4.686z"></path><path fill="url(#e)" d="M81.777 65.582l-9.162-35.887-26.219 24.577z"></path><path fill="url(#f)" d="M104.734 30.201l-24.785-20.243-6.901 22.313z"></path><path fill="url(#g)" d="M93.142 2.741l-14.576 8.056-9.197-8.164z"></path><path fill="url(#h)" d="M21.188 70.73l6.107-11.137-4.941-13.267z"></path><path fill="#fff" d="M22.026 45.905l4.97 14.098 21.595-4.845 24.655-22.913 6.958-22.1-10.955-7.737-18.627 6.971c-5.868 5.458-17.256 16.258-17.667 16.461-.406.208-7.519 13.653-10.929 20.065z"></path><path fill="url(#i)" d="M39.477 20.581c12.719-12.611 29.115-20.061 35.407-13.712 6.289 6.348-.38 21.776-13.099 34.382-12.718 12.607-28.912 20.468-35.199 14.119-6.294-6.344.173-22.183 12.891-34.789z"></path><path fill="url(#j)" d="M38.906 87.709l9.879-32.724 32.811 10.541c-11.864 11.125-25.058 20.528-42.69 22.183z"></path><path fill="url(#k)" d="M73.289 32.181l8.423 33.363c9.91-10.419 18.804-21.621 23.159-35.476l-31.582 2.113z"></path><path fill="url(#l)" d="M104.785 30.236c3.371-10.174 4.148-24.768-11.746-27.477l-13.043 7.204 24.789 20.273z"></path><path fill="#9E1209" d="M21.188 70.583c.467 16.789 12.581 17.04 17.741 17.188l-11.92-27.837-5.821 10.649z"></path><path fill="url(#m)" d="M73.337 32.232c7.615 4.68 22.96 14.08 23.271 14.253.484.272 6.617-10.342 8.008-16.34l-31.279 2.087z"></path><path fill="url(#n)" d="M48.772 54.986l13.207 25.48c7.81-4.235 13.924-9.395 19.526-14.922l-32.733-10.558z"></path><path fill="url(#o)" d="M26.957 59.969l-1.872 22.282c3.532 4.823 8.389 5.241 13.485 4.866-3.687-9.175-11.051-27.521-11.613-27.148z"></path><path fill="url(#p)" d="M79.919 10.02l26.237 3.683c-1.401-5.935-5.701-9.763-13.03-10.961l-13.207 7.278z"></path>
</svg>
